<?xml version="1.0" standalone="no"?><!DOCTYPE svg PUBLIC "-//W3C//DTD SVG 1.1//EN" "http://www.w3.org/Graphics/SVG/1.1/DTD/svg11.dtd"><svg t="1486957495644" class="icon" style="" viewBox="0 0 1024 1024" version="1.1" xmlns="http://www.w3.org/2000/svg" p-id="3286" xmlns:xlink="http://www.w3.org/1999/xlink" width="18" height="18"><defs><style type="text/css"></style></defs><path d="M399.872 512c0 66.56 50.176 120.832 111.616 120.832s111.616-54.272 111.616-120.832v-1.024c-11.776 13.312-28.16 20.992-46.592 20.992-35.84 0-65.024-31.744-65.024-70.656 0-28.16 15.36-52.224 36.864-63.488-11.776-4.608-24.064-6.656-36.864-6.656-61.44 0-111.616 54.272-111.616 120.832z m534.528-68.608C864.768 348.16 695.808 189.952 512 189.952c-184.32 0-353.28 158.208-422.4 253.44-15.872 21.504-24.064 45.056-24.576 68.608 0.512 23.552 9.216 47.104 24.576 68.608 69.12 95.232 238.08 253.44 422.4 253.44s352.768-158.208 422.4-253.44c15.872-21.504 24.576-45.056 25.088-68.608-1.024-23.552-9.216-47.104-25.088-68.608zM512 713.216c-102.912 0-186.368-90.112-186.368-201.216 0-111.104 83.456-201.216 186.368-201.216s186.368 90.112 186.368 201.216c0 111.104-83.456 201.216-186.368 201.216z" fill="#01b0ff" p-id="3287"></path></svg>